<svg width="546.35" height="410" version="1.1" viewBox="0 0 144.56 108.48" xmlns="http://www.w3.org/2000/svg" xmlns:xlink="http://www.w3.org/1999/xlink">
 <defs>
  <style>.r{fill:url(#j);}.s{fill:url(#g);}.t{fill:url(#m);}.u{fill:url(#h);}.v{fill:url(#i);}.w{fill:url(#o);}.x{fill:url(#p);}.y{fill:url(#k);}.z{fill:url(#n);}.aa{fill:url(#l);}.ab{fill:url(#f);}.ac{fill:url(#d);}.ad{fill:url(#e);}.ae{fill:url(#c);}.af{fill:#f9fbfc;}.ag{fill:#efa78b;}.ah,.ai{fill:#e6e7e8;}.aj{fill:#ffc8af;}.ak{fill:#97c6db;}.al{fill:#89bcce;}.am{fill:#bee1f4;}.an{fill:#bc8867;}.ao{fill:#112b46;}.ap{fill:#243c55;}.aq{fill:#0a2033;}.ar{fill:#1d262d;}.as{fill:#381101;}.at{fill:#840000;}.au{fill:#7aabbc;}.ai,.av{mix-blend-mode:multiply;}.aw{isolation:isolate;}</style>
  <linearGradient id="c" x1="76.2" x2="76.2" y1="221.52" y2="267.85" gradientUnits="userSpaceOnUse">
   <stop stop-color="#2dd400" offset="0"/>
   <stop stop-color="#007f4f" offset="1"/>
  </linearGradient>
  <linearGradient id="d" x1="23.76" x2="23.76" y1="250.96" y2="274.04" xlink:href="#c"/>
  <linearGradient id="e" x1="38.04" x2="38.04" y1="212.23" y2="264.64" xlink:href="#c"/>
  <radialGradient id="f" cx="152.82" cy="35.51" r="33.96" gradientUnits="userSpaceOnUse">
   <stop stop-color="#ffc8af" offset="0"/>
   <stop stop-color="#ffbb9c" offset="1"/>
  </radialGradient>
  <linearGradient id="g" x1="266.69" x2="280.95" y1="283.01" y2="307.71" gradientUnits="userSpaceOnUse">
   <stop stop-color="#aa002a" offset="0"/>
   <stop stop-color="#e9001a" offset="1"/>
  </linearGradient>
  <linearGradient id="h" x1="200.87" x2="218.34" y1="284.14" y2="314.41" xlink:href="#g"/>
  <linearGradient id="i" x1="123.06" x2="163.38" y1="95.17" y2="95.17" gradientUnits="userSpaceOnUse">
   <stop stop-color="#dd1215" offset="0"/>
   <stop stop-color="#bf0005" offset="1"/>
  </linearGradient>
  <linearGradient id="j" x1="89.81" x2="148.79" y1="69.19" y2="171.35" xlink:href="#i"/>
  <radialGradient id="k" cx="187.24" cy="124.51" r="42.99" gradientUnits="userSpaceOnUse">
   <stop stop-color="#ffc8af" offset="0"/>
   <stop stop-color="#f1bc9c" offset="1"/>
  </radialGradient>
  <radialGradient id="l" cx="152.82" cy="35.51" r="33.95" xlink:href="#f"/>
  <linearGradient id="m" x1="134.9" x2="134.9" y1="56.75" y2="122.96" xlink:href="#i"/>
  <linearGradient id="n" x1="125.29" x2="159.33" y1="182.85" y2="241.79" gradientTransform="rotate(180,142.31,212.32)" gradientUnits="userSpaceOnUse">
   <stop stop-color="#ec827d" offset="0"/>
   <stop stop-color="#ff5a7d" offset="1"/>
  </linearGradient>
  <linearGradient id="o" x1="128.5" x2="155.34" y1="277.37" y2="323.85" gradientTransform="rotate(180,142.31,299.17)" xlink:href="#n"/>
  <linearGradient id="p" x1="65.18" x2="87.61" y1="101.29" y2="140.15" xlink:href="#n"/>
  <linearGradient id="u" x1="76.2" x2="76.2" y1="221.52" y2="267.85" gradientUnits="userSpaceOnUse" xlink:href="#c"/>
  <radialGradient id="q" cx="152.82" cy="35.51" r="33.96" gradientUnits="userSpaceOnUse" xlink:href="#f"/>
  <linearGradient id="t" x1="266.69" x2="280.95" y1="283.01" y2="307.71" gradientUnits="userSpaceOnUse" xlink:href="#g"/>
  <linearGradient id="s" x1="123.06" x2="163.38" y1="95.17" y2="95.17" gradientUnits="userSpaceOnUse" xlink:href="#i"/>
  <linearGradient id="r" x1="125.29" x2="159.33" y1="182.85" y2="241.79" gradientTransform="rotate(180,142.31,212.32)" gradientUnits="userSpaceOnUse" xlink:href="#n"/>
 </defs>
 <g transform="translate(-259.83 -8.4204)">
  <g class="aw" transform="matrix(.19725 0 0 .19725 5.0306 9.5196)">
   <g id="a">
    <path class="ak" d="m371.09 223.35-12.93 90.79h-328.78l-9.71-69.26c-1.08-7.76 3.21-15.28 10.45-18.29l29.18-12.11v-29.02c0-8.55 6.26-15.8 14.72-17.03l6.9-1.01 11.59-39.19c2.16-7.32 8.88-12.33 16.5-12.33h118.55c4.51 0 8.64 1.74 11.72 4.6 3.08 2.87 5.11 6.86 5.44 11.36l56.45 5.96c8.38 0.89 14.88 7.7 15.38 16.11l2.28 39.16 39.89 11.27c8.3 2.34 13.58 10.46 12.37 18.99z"/>
    <path class="al" d="m353.49 276.02-5.43 38.12h-233.24l-3.26-23.29c-0.75-5.35 2.2-10.52 7.19-12.59l20.09-8.34v-19.98c0-5.88 4.31-10.88 10.13-11.73l4.76-0.69 7.97-26.98c1.49-5.04 6.11-8.49 11.36-8.49h81.61c3.11 0 5.95 1.2 8.07 3.17 2.13 1.97 3.53 4.72 3.75 7.82l38.86 4.1c5.77 0.61 10.25 5.31 10.59 11.1l1.57 26.95 27.47 7.76c5.71 1.61 9.34 7.2 8.51 13.07z"/>
   </g>
   <g id="b">
    <rect class="ak" x=".83" y="311.22" width="421.7" height="5.85"/>
    <path class="ao" d="m61.8 263.42s-0.68 2.03-1.4 4.57-1.48 5.58-1.64 7.7l1.21 0.09c0.14-1.93 0.89-4.96 1.6-7.46 0.36-1.25 0.7-2.38 0.96-3.2 0.26-0.81 0.42-1.31 0.43-1.31l-1.15-0.39z"/>
    <path class="ao" d="m50.92 264.42s0.02 0.21 0.06 0.58c0.11 1.12 0.33 3.73 0.33 6.56 0 1.33-0.05 2.7-0.18 3.99l1.21 0.12c0.13-1.35 0.18-2.76 0.18-4.11 0-3.86-0.4-7.27-0.4-7.28l-1.21 0.14z"/>
    <path class="ao" d="m44.89 272.47c0.04 0.05 0.29 0.35 0.52 0.76 0.23 0.42 0.43 0.95 0.43 1.47h1.22c0-0.87-0.33-1.62-0.64-2.16s-0.62-0.87-0.64-0.89l-0.9 0.82z"/>
    <path class="ae" d="m60.35 264.66s-6.24-7.91 3.35-24.35 29.37-20.39 30.28-18.26-10.04 6.24-13.09 18.87c-3.04 12.63-3.45 19.63-7.25 23.44s-8.98 5.33-13.29 0.3z" fill="url(#u)"/>
    <path class="ac" d="m47.51 266.25s-0.68-8.9-16.79-13.85-31.37 4.34-30.69 6.28 10.29-1.96 19.85 4.44 14.03 10.72 18.79 10.91c4.76 0.2 9.05-1.92 8.84-7.78z" fill="url(#d)"/>
    <path class="ad" d="m57.2 260.42s10.75-11.54-1.72-30c-12.46-18.46-39.94-19.75-40.85-17.19-0.9 2.56 10.75 7.39 15.28 21.91s7 21.8 11.73 25.95 10.9 5.53 15.55-0.66z" fill="url(#e)"/>
    <path class="ai" d="m62.89 262.22c-0.05 0-0.11 0-0.16-0.02-0.32-0.09-0.51-0.42-0.42-0.75 0.28-1 6.96-24.72 19.32-33.78 0.27-0.2 0.65-0.14 0.85 0.13s0.14 0.65-0.13 0.85c-12.02 8.81-18.8 32.88-18.87 33.12-0.07 0.27-0.32 0.45-0.59 0.45z"/>
    <path class="ai" d="m50.44 259.21c-0.27 0-0.52-0.19-0.61-0.45-0.03-0.1-0.04-0.17-0.07-0.66-0.56-8.34-4.11-36.02-26.44-41.86-0.33-0.09-0.52-0.42-0.44-0.74s0.42-0.52 0.74-0.44c23.12 6.05 26.78 34.41 27.35 42.96 0.02 0.23 0.02 0.38 0.03 0.44 0.11 0.32-0.08 0.62-0.4 0.73-0.06 0.02-0.11 0.03-0.17 0.03z"/>
    <g class="av">
     <path class="ah" d="m42.92 270.29c-0.28 0-0.55-0.25-1.44-1.05-10.01-9.06-19.66-13.35-28.69-12.77-0.34 0.02-0.62-0.23-0.65-0.57-0.02-0.34 0.23-0.62 0.57-0.65 9.37-0.62 19.32 3.79 29.59 13.08 0.36 0.32 0.72 0.65 0.87 0.76 0.17 0.06 0.3 0.2 0.36 0.38 0.11 0.32-0.07 0.66-0.38 0.77-0.08 0.03-0.15 0.04-0.22 0.04z"/>
    </g>
    <path class="am" d="m67.83 311.53h-31.39c-0.79 0-1.48-0.54-1.65-1.31l-8.22-35.51h51.13l-8.22 35.51c-0.18 0.77-0.86 1.31-1.65 1.31z"/>
    <polygon class="au" points="26.57 274.7 28.96 285.03 75.31 285.03 77.7 274.7"/>
    <polygon class="am" points="26.57 274.7 27.05 276.79 77.22 276.79 77.7 274.7"/>
    <polygon class="ar" points="283.87 146.94 315.82 88.57 319.24 90.44 286.19 150.84 217.52 150.84 217.52 146.94"/>
    <path class="ab" d="m176.25 26.88s-0.91 6.06-4.57 11.71-11.91 13.95-14.19 14.66c-0.92 0.28-4.19-1.2-7.76-3.07-1.17-0.61-2.37-1.27-3.54-1.91-4.11-2.28-7.73-4.48-7.73-4.48l-5.45-7.69c2.21-11.15 6.15-19.51 12.21-27.42 6.05-7.92 19.57-3.16 24.49 0.64 4.93 3.8 7.61 9.76 6.54 17.56z" fill="url(#q)"/>
    <path class="ag" d="m145.94 27.81c-0.16 4.98 3.12 6.86 3.78 7.7s-3.75 5.44-5.73 3.38c-1.97-2.06 1.94-11.08 1.94-11.08z"/>
    <polygon class="aj" points="251.94 279.54 269.29 278.47 271.73 290.18 255.65 292.95"/>
    <path class="af" d="m302.57 295.6 1.05 5.86-51.02 9.1-1.04-5.81s45.23-8.59 50.15-9.04l0.86-0.12z"/>
    <path class="s" d="m280.89 288.69c0.09-0.12 0.13-0.26 0.14-0.4 1.02 0.39 2.09 0.8 3.17 1.22l-3.61 5c-0.29 0.39-0.19 0.95 0.2 1.24 0.21 0.14 0.45 0.19 0.67 0.15 0.21-0.04 0.42-0.16 0.55-0.35l3.74-5.17c0.06-0.08 0.1-0.16 0.1-0.25 6.85 2.59 14.04 5.24 15.85 5.6-4.92 0.45-50.15 9.04-50.15 9.04l1.61-13.5c0.07-0.57 0.62-0.95 1.19-0.84 11.97 2.34 16.13-2.87 17.26-4.89 0.24-0.43 0.75-0.6 1.21-0.43 0.53 0.2 1.28 0.5 2.2 0.85l-3.56 4.94c-0.29 0.39-0.19 0.93 0.2 1.22 0.21 0.14 0.45 0.21 0.68 0.17 0.21-0.04 0.42-0.17 0.56-0.37l3.72-5.16s0.06-0.08 0.07-0.14c0.83 0.32 1.76 0.68 2.74 1.06l-3.72 5.16c-0.29 0.39-0.21 0.94 0.2 1.22 0.19 0.15 0.43 0.21 0.68 0.17 0.21-0.04 0.42-0.17 0.55-0.37l3.74-5.17z" fill="url(#t)"/>
    <path class="af" d="m282.02 295.54c-0.13 0.18-0.34 0.31-0.55 0.35-0.23 0.04-0.47 0-0.67-0.15-0.39-0.29-0.49-0.85-0.2-1.24l3.61-5c0.56 0.21 1.1 0.42 1.66 0.62 0 0.09-0.04 0.17-0.1 0.25l-3.74 5.17z"/>
    <path class="af" d="m279.45 287.67c0.5 0.2 1.04 0.41 1.59 0.62 0 0.15-0.06 0.28-0.14 0.4l-3.74 5.17c-0.13 0.2-0.34 0.33-0.55 0.37-0.24 0.04-0.49-0.02-0.68-0.17-0.41-0.29-0.49-0.83-0.2-1.22l3.72-5.16z"/>
    <path class="af" d="m272.92 291.91c-0.14 0.21-0.35 0.33-0.56 0.37-0.23 0.04-0.47-0.02-0.68-0.17-0.39-0.29-0.49-0.83-0.2-1.22l3.56-4.94c0.5 0.2 1.07 0.42 1.67 0.66 0 0.06-0.04 0.1-0.07 0.14z"/>
    <path class="ap" d="m181.94 203.07c-10.45 0.53-24.41 1.27-42.64 1.97-51.01 1.95-40.62-47.44-40.62-47.44l48.75-0.64s72.48-1.07 87.74 8.68c15.27 9.75 37.53 112.62 37.53 112.62l-24.28 6.78s-19.67-42.29-31.16-64.81c-4.72-9.26-8.13-16.07-8.42-16.81-0.62-1.66-8.09-1.33-26.91-0.35z"/>
    <path class="aq" d="m148.98 156.94c-1 0-1.55 0.02-1.55 0.02l-48.75 0.64s-5.83 27.7 12.67 40.79c18.41-4.45 29.39-23.14 39.05-39.91l-1.43-1.55z"/>
    <path class="aq" d="m217.27 220.22-4.04 61.03-4.39 0.1v-2.53h-17.39v2.96l-4.8 0.12-4.72-78.83c18.82-0.97 26.28-1.31 26.91 0.35 0.29 0.74 3.7 7.55 8.42 16.81z"/>
    <polygon class="aj" points="191.46 281.78 208.85 281.35 208.85 292.47 191.46 292.47"/>
    <polygon class="aq" points="191.46 278.82 208.85 278.82 208.85 281.35 191.46 281.78"/>
    <path class="af" d="m238.34 303.39v5.96h-51.83v-5.9s46.03-0.51 50.96-0.09z"/>
    <path class="u" d="m218.21 292.78c0.11-0.11 0.18-0.23 0.21-0.37 0.94 0.57 1.91 1.15 2.91 1.75l-4.43 4.29c-0.35 0.34-0.35 0.9-0.02 1.26 0.18 0.18 0.41 0.27 0.64 0.27 0.21 0 0.44-0.09 0.6-0.25l4.59-4.43c0.07-0.07 0.12-0.14 0.14-0.23 6.29 3.76 12.9 7.62 14.62 8.29-4.93-0.43-50.96 0.09-50.96 0.09l3.96-13.01c0.17-0.55 0.78-0.83 1.32-0.62 11.38 4.41 16.38 0 17.85-1.78 0.31-0.38 0.85-0.46 1.27-0.21 0.48 0.29 1.17 0.71 2.02 1.23l-4.38 4.23c-0.35 0.34-0.35 0.89-0.02 1.24 0.18 0.18 0.41 0.28 0.64 0.28 0.21 0 0.44-0.09 0.62-0.27l4.57-4.43s0.07-0.07 0.09-0.12c0.76 0.46 1.61 0.97 2.52 1.52l-4.57 4.43c-0.35 0.34-0.37 0.89-0.02 1.24 0.16 0.18 0.39 0.28 0.64 0.28 0.21 0 0.44-0.09 0.6-0.27l4.59-4.43z" fill="url(#h)"/>
    <path class="af" d="m218.12 299.73c-0.16 0.16-0.39 0.25-0.6 0.25-0.23 0-0.46-0.09-0.64-0.27-0.34-0.35-0.34-0.92 0.02-1.26l4.43-4.29c0.51 0.3 1.01 0.6 1.52 0.9-0.02 0.09-0.07 0.16-0.14 0.23l-4.59 4.43z"/>
    <path class="af" d="m216.97 291.53c0.46 0.28 0.96 0.58 1.45 0.89-0.04 0.14-0.11 0.27-0.21 0.37l-4.59 4.43c-0.16 0.18-0.39 0.27-0.6 0.27-0.25 0-0.48-0.11-0.64-0.28-0.35-0.35-0.34-0.9 0.02-1.24l4.57-4.43z"/>
    <path class="af" d="m209.8 294.56c-0.18 0.18-0.41 0.27-0.62 0.27-0.23 0-0.46-0.11-0.64-0.28-0.34-0.35-0.34-0.9 0.02-1.24l4.38-4.23c0.46 0.28 0.97 0.6 1.52 0.94-0.02 0.05-0.05 0.09-0.09 0.12l-4.57 4.43z"/>
    <path class="ag" d="m237.12 143.3h-28.76s-43.38-7-51.83-12.19c-3.14-1.93-8.52-7.84-14.08-14.51l19.6-16.32c3.43 5.44 6.55 9.87 7.8 10.35 3.41 1.29 35.74 19.32 39.48 19.32s21.6-0.31 27.79 13.34z"/>
    <path class="v" d="m163.38 99.88-20.92 16.73c-9.48-11.37-19.4-24.98-19.4-24.98l29.67-17.9s7.62 18.1 10.65 26.15z" fill="url(#s)"/>
    <path class="r" d="m145.48 58.8-21.45-8.44s-25.58 2.97-27.34 64.6c-0.34 11.9-0.22 77.65 3.4 79.34 14.45 6.73 51.67-37.37 51.67-37.37 0.74-1.37-0.31-15.59 0-16.99-0.9-0.33-1.64-0.68-2.22-1.01-3.8-2.24-10.9-11.66-17.88-21.84l22.07-17.2c0.88 1.38 1.75 2.73 2.59 4.04 0.58-32.87-10.84-45.12-10.84-45.12z" fill="url(#j)"/>
    <path class="at" d="m151.76 139.93c-0.9-0.33-1.64-0.68-2.22-1.01-3.8-2.24-10.9-11.66-17.88-21.84l10.83-8.44-10.83-16.06-19.52-12.76v8.79s8.36 22.74 18.31 40.57c5.4 9.68 14.34 14.43 21.39 16.76-0.11-2.94-0.19-5.46-0.07-6.01z"/>
    <path class="y" d="m214.7 136.48s-45.33-18.52-48.42-19.19c-0.97-0.21-4.31-4.81-8.41-11.02-0.86-1.34-3.27-5.01-4.14-6.38l-22.07 17.2c6.98 10.18 14.08 19.6 17.88 21.84 0.58 0.33 1.33 0.68 2.22 1.01 0-0.05 0.02-0.09 0.03-0.13 0 0.04-0.02 0.08-0.03 0.13 13.18 4.93 60.61 7.21 61.53 7.52 1.7 1.32 5.71 1.4 9.31 0.41 1.67-0.46 3.26-1.14 4.47-2.06 3.17-2.37 7.9 0.98 10.04 2.59 1.39 1.05 4.62 1.01 5.69-0.06-2.44-13.65-28.12-11.85-28.12-11.85z" fill="url(#k)"/>
    <polygon class="aa" points="147.23 46.57 150.37 48.88 149.73 50.18 148.35 52.97 148.1 53.48 145.48 58.79 124.03 50.35 133.01 36.1" fill="url(#l)"/>
    <path class="t" d="m112.13 88.6 22.36 34.36 25.56-14.68s-6.96-26.77-13.72-41.5c-4.2-9.15-16.28-13.69-27.97-6.41-10.3 6.41-9.99 21.39-6.24 28.24z" fill="url(#m)"/>
    <path class="as" d="m154.3 26.78c-0.82-3.73-4.23-7.16-7.31-2.17-0.76 1.24-1.02 2.71-1.17 4.16-0.55 5.2-6.59 7.48-11.11 7.83-0.71 0.05-1.47 0.05-2.18-0.08 0 0 1.14-8.55 3.68-18.86s8.28-20.81 16.58-16.6c0 0 7.64-3.56 12.28 2.35 0 0 7.88-2.83 11.97 3.51 0 0 11.07 2.09 13.14 8.97 2.63 8.74-9.61 10.87-13.69 8.39-4.08-2.47-7.17-7.17-9.99-7.08s-2.18 4.41-2.6 7.08-4.57-0.08-6.33 3.51-2.64 5.6-3.69 4.97c-1.06-0.63 0.42-5.98 0.42-5.98z"/>
    <path class="ag" d="m152.82 27.69c0.31-1.34-0.52-3.25-1.69-3.33-1.5-0.1-2.19 1.73-2.3 3.34-0.1 1.48 0.34 4.04 1.98 3.48 1.25-0.43-0.14-1.93 0.31-2.75 0.49-0.9 1.71 0.7 1.71-0.74z"/>
    <path class="ag" d="m149.73 50.18-1.38 2.79c-4.51-3.22-4.33-8.1-4.33-8.1s1.3 2.78 5.71 5.31z"/>
    <path class="ao" d="m68.68 99.94c0 0.17 0 0.24 0.01 0.3 0.02 0.2 0.03 0.26 0.04 0.37 0.05 0.39 0.15 1.07 0.31 2.12 1.16 7.78 5.33 34.44 9.21 59.18s7.46 47.54 7.46 47.54l7.7-1.21s-0.27-1.69-0.73-4.64c-1.62-10.34-5.69-36.19-9.34-59.56-1.83-11.69-3.55-22.75-4.82-30.95-0.63-4.1-1.15-7.48-1.52-9.86-0.18-1.19-0.32-2.13-0.41-2.77-0.05-0.32-0.08-0.57-0.1-0.73l-0.02-0.15s-2.31 0.25-2.31 0.25l2.31-0.19v-0.06s-2.31 0.25-2.31 0.25l2.31-0.19-3.61 0.3h3.62c0-0.21 0-0.26-0.01-0.3l-3.61 0.3z"/>
    <path class="aq" transform="rotate(180 142.31 266.12)" d="m139.21 219.98h6.19c0.9 0 1.63 0.73 1.63 1.63v90.66h-9.44v-90.66c0-0.9 0.73-1.63 1.63-1.63z"/>
    <path class="aq" transform="rotate(180 142.31 300.94)" d="m139.21 289.6h6.19c0.9 0 1.63 0.73 1.63 1.63v21.04h-9.44v-21.04c0-0.9 0.73-1.63 1.63-1.63z"/>
    <path class="ao" transform="rotate(180,142.31,225.22)" d="m122.68 221.28h39.26c3.5 0 6.34 2.84 6.34 6.34v1.54h-51.94v-1.54c0-3.5 2.84-6.34 6.34-6.34z"/>
    <rect class="z" transform="rotate(180,142.31,212.32)" x="84.76" y="203.12" width="115.09" height="18.4" rx="7.4" ry="7.4" fill="url(#r)"/>
    <path class="aq" d="m93.3 306.74c0 3.05 2.47 5.53 5.53 5.53s5.53-2.47 5.53-5.53-2.47-5.53-5.53-5.53-5.53 2.47-5.53 5.53z"/>
    <circle class="aq" cx="185.79" cy="306.74" r="5.53"/>
    <rect class="ao" transform="rotate(180,142.31,290.87)" x="132.81" y="282.57" width="19" height="16.6"/>
    <path class="w" transform="rotate(180,142.31,299.17)" d="m93.3 295.26h98.03v2.06c0 3.17-2.58 5.75-5.75 5.75h-86.53c-3.17 0-5.75-2.58-5.75-5.75z" fill="url(#o)"/>
    <path class="x" d="m66.35 106.37 4.16 30.85c0.59 4.4 4.64 7.48 9.04 6.89s7.48-4.64 6.89-9.04l-4.16-30.85c-0.59-4.4-4.64-7.48-9.04-6.89s-7.48 4.64-6.89 9.04" fill="url(#p)"/>
    <rect class="an" x="340.58" y="160.02" width="8.45" height="151.19"/>
    <rect class="an" x="213.29" y="160.02" width="8.45" height="151.19"/>
    <rect class="af" x="206.96" y="150.6" width="150.54" height="10.56"/>
   </g>
  </g>
  <g class="aw" transform="matrix(.263 0 0 .263 110.22 9.3489)" style="isolation:isolate">
   <path class="ak" d="m371.09 223.35-12.93 90.79h-328.78l-9.71-69.26c-1.08-7.76 3.21-15.28 10.45-18.29l29.18-12.11v-29.02c0-8.55 6.26-15.8 14.72-17.03l6.9-1.01 11.59-39.19c2.16-7.32 8.88-12.33 16.5-12.33h118.55c4.51 0 8.64 1.74 11.72 4.6 3.08 2.87 5.11 6.86 5.44 11.36l56.45 5.96c8.38 0.89 14.88 7.7 15.38 16.11l2.28 39.16 39.89 11.27c8.3 2.34 13.58 10.46 12.37 18.99z"/>
   <path class="al" d="m353.49 276.02-5.43 38.12h-233.24l-3.26-23.29c-0.75-5.35 2.2-10.52 7.19-12.59l20.09-8.34v-19.98c0-5.88 4.31-10.88 10.13-11.73l4.76-0.69 7.97-26.98c1.49-5.04 6.11-8.49 11.36-8.49h81.61c3.11 0 5.95 1.2 8.07 3.17 2.13 1.97 3.53 4.72 3.75 7.82l38.86 4.1c5.77 0.61 10.25 5.31 10.59 11.1l1.57 26.95 27.47 7.76c5.71 1.61 9.34 7.2 8.51 13.07z"/>
   <rect class="ak" x=".83" y="311.22" width="421.7" height="5.85"/>
   <path class="ao" d="m61.8 263.42s-0.68 2.03-1.4 4.57-1.48 5.58-1.64 7.7l1.21 0.09c0.14-1.93 0.89-4.96 1.6-7.46 0.36-1.25 0.7-2.38 0.96-3.2 0.26-0.81 0.42-1.31 0.43-1.31l-1.15-0.39z"/>
   <path class="ao" d="m50.92 264.42s0.02 0.21 0.06 0.58c0.11 1.12 0.33 3.73 0.33 6.56 0 1.33-0.05 2.7-0.18 3.99l1.21 0.12c0.13-1.35 0.18-2.76 0.18-4.11 0-3.86-0.4-7.27-0.4-7.28l-1.21 0.14z"/>
   <path class="ao" d="m44.89 272.47c0.04 0.05 0.29 0.35 0.52 0.76 0.23 0.42 0.43 0.95 0.43 1.47h1.22c0-0.87-0.33-1.62-0.64-2.16s-0.62-0.87-0.64-0.89l-0.9 0.82z"/>
   <path class="ae" d="m60.35 264.66s-6.24-7.91 3.35-24.35 29.37-20.39 30.28-18.26-10.04 6.24-13.09 18.87c-3.04 12.63-3.45 19.63-7.25 23.44s-8.98 5.33-13.29 0.3z" fill="url(#u)"/>
   <path class="ac" d="m47.51 266.25s-0.68-8.9-16.79-13.85-31.37 4.34-30.69 6.28 10.29-1.96 19.85 4.44 14.03 10.72 18.79 10.91c4.76 0.2 9.05-1.92 8.84-7.78z" fill="url(#d)"/>
   <path class="ad" d="m57.2 260.42s10.75-11.54-1.72-30c-12.46-18.46-39.94-19.75-40.85-17.19-0.9 2.56 10.75 7.39 15.28 21.91s7 21.8 11.73 25.95 10.9 5.53 15.55-0.66z" fill="url(#e)"/>
   <path class="ai" d="m62.89 262.22c-0.05 0-0.11 0-0.16-0.02-0.32-0.09-0.51-0.42-0.42-0.75 0.28-1 6.96-24.72 19.32-33.78 0.27-0.2 0.65-0.14 0.85 0.13s0.14 0.65-0.13 0.85c-12.02 8.81-18.8 32.88-18.87 33.12-0.07 0.27-0.32 0.45-0.59 0.45z"/>
   <path class="ai" d="m50.44 259.21c-0.27 0-0.52-0.19-0.61-0.45-0.03-0.1-0.04-0.17-0.07-0.66-0.56-8.34-4.11-36.02-26.44-41.86-0.33-0.09-0.52-0.42-0.44-0.74s0.42-0.52 0.74-0.44c23.12 6.05 26.78 34.41 27.35 42.96 0.02 0.23 0.02 0.38 0.03 0.44 0.11 0.32-0.08 0.62-0.4 0.73-0.06 0.02-0.11 0.03-0.17 0.03z"/>
   <g class="av">
    <path class="ah" d="m42.92 270.29c-0.28 0-0.55-0.25-1.44-1.05-10.01-9.06-19.66-13.35-28.69-12.77-0.34 0.02-0.62-0.23-0.65-0.57-0.02-0.34 0.23-0.62 0.57-0.65 9.37-0.62 19.32 3.79 29.59 13.08 0.36 0.32 0.72 0.65 0.87 0.76 0.17 0.06 0.3 0.2 0.36 0.38 0.11 0.32-0.07 0.66-0.38 0.77-0.08 0.03-0.15 0.04-0.22 0.04z"/>
   </g>
   <path class="am" d="m67.83 311.53h-31.39c-0.79 0-1.48-0.54-1.65-1.31l-8.22-35.51h51.13l-8.22 35.51c-0.18 0.77-0.86 1.31-1.65 1.31z"/>
   <polygon class="au" points="28.96 285.03 75.31 285.03 77.7 274.7 26.57 274.7"/>
   <polygon class="am" points="27.05 276.79 77.22 276.79 77.7 274.7 26.57 274.7"/>
   <polygon class="ar" points="315.82 88.57 319.24 90.44 286.19 150.84 217.52 150.84 217.52 146.94 283.87 146.94"/>
   <path class="ab" d="m176.25 26.88s-0.91 6.06-4.57 11.71-11.91 13.95-14.19 14.66c-0.92 0.28-4.19-1.2-7.76-3.07-1.17-0.61-2.37-1.27-3.54-1.91-4.11-2.28-7.73-4.48-7.73-4.48l-5.45-7.69c2.21-11.15 6.15-19.51 12.21-27.42 6.05-7.92 19.57-3.16 24.49 0.64 4.93 3.8 7.61 9.76 6.54 17.56z" fill="url(#q)"/>
   <path class="ag" d="m145.94 27.81c-0.16 4.98 3.12 6.86 3.78 7.7s-3.75 5.44-5.73 3.38c-1.97-2.06 1.94-11.08 1.94-11.08z"/>
   <polygon class="aj" points="269.29 278.47 271.73 290.18 255.65 292.95 251.94 279.54"/>
   <path class="af" d="m302.57 295.6 1.05 5.86-51.02 9.1-1.04-5.81s45.23-8.59 50.15-9.04l0.86-0.12z"/>
   <path class="s" d="m280.89 288.69c0.09-0.12 0.13-0.26 0.14-0.4 1.02 0.39 2.09 0.8 3.17 1.22l-3.61 5c-0.29 0.39-0.19 0.95 0.2 1.24 0.21 0.14 0.45 0.19 0.67 0.15 0.21-0.04 0.42-0.16 0.55-0.35l3.74-5.17c0.06-0.08 0.1-0.16 0.1-0.25 6.85 2.59 14.04 5.24 15.85 5.6-4.92 0.45-50.15 9.04-50.15 9.04l1.61-13.5c0.07-0.57 0.62-0.95 1.19-0.84 11.97 2.34 16.13-2.87 17.26-4.89 0.24-0.43 0.75-0.6 1.21-0.43 0.53 0.2 1.28 0.5 2.2 0.85l-3.56 4.94c-0.29 0.39-0.19 0.93 0.2 1.22 0.21 0.14 0.45 0.21 0.68 0.17 0.21-0.04 0.42-0.17 0.56-0.37l3.72-5.16s0.06-0.08 0.07-0.14c0.83 0.32 1.76 0.68 2.74 1.06l-3.72 5.16c-0.29 0.39-0.21 0.94 0.2 1.22 0.19 0.15 0.43 0.21 0.68 0.17 0.21-0.04 0.42-0.17 0.55-0.37l3.74-5.17z" fill="url(#t)"/>
   <path class="af" d="m282.02 295.54c-0.13 0.18-0.34 0.31-0.55 0.35-0.23 0.04-0.47 0-0.67-0.15-0.39-0.29-0.49-0.85-0.2-1.24l3.61-5c0.56 0.21 1.1 0.42 1.66 0.62 0 0.09-0.04 0.17-0.1 0.25l-3.74 5.17z"/>
   <path class="af" d="m279.45 287.67c0.5 0.2 1.04 0.41 1.59 0.62 0 0.15-0.06 0.28-0.14 0.4l-3.74 5.17c-0.13 0.2-0.34 0.33-0.55 0.37-0.24 0.04-0.49-0.02-0.68-0.17-0.41-0.29-0.49-0.83-0.2-1.22l3.72-5.16z"/>
   <path class="af" d="m272.92 291.91c-0.14 0.21-0.35 0.33-0.56 0.37-0.23 0.04-0.47-0.02-0.68-0.17-0.39-0.29-0.49-0.83-0.2-1.22l3.56-4.94c0.5 0.2 1.07 0.42 1.67 0.66 0 0.06-0.04 0.1-0.07 0.14z"/>
   <path class="ap" d="m181.94 203.07c-10.45 0.53-24.41 1.27-42.64 1.97-51.01 1.95-40.62-47.44-40.62-47.44l48.75-0.64s72.48-1.07 87.74 8.68c15.27 9.75 37.53 112.62 37.53 112.62l-24.28 6.78s-19.67-42.29-31.16-64.81c-4.72-9.26-8.13-16.07-8.42-16.81-0.62-1.66-8.09-1.33-26.91-0.35z"/>
   <path class="aq" d="m148.98 156.94c-1 0-1.55 0.02-1.55 0.02l-48.75 0.64s-5.83 27.7 12.67 40.79c18.41-4.45 29.39-23.14 39.05-39.91l-1.43-1.55z"/>
   <path class="aq" d="m217.27 220.22-4.04 61.03-4.39 0.1v-2.53h-17.39v2.96l-4.8 0.12-4.72-78.83c18.82-0.97 26.28-1.31 26.91 0.35 0.29 0.74 3.7 7.55 8.42 16.81z"/>
   <polygon class="aj" points="208.85 281.35 208.85 292.47 191.46 292.47 191.46 281.78"/>
   <polygon class="aq" points="208.85 278.82 208.85 281.35 191.46 281.78 191.46 278.82"/>
   <path class="af" d="m238.34 303.39v5.96h-51.83v-5.9s46.03-0.51 50.96-0.09z"/>
   <path class="u" d="m218.21 292.78c0.11-0.11 0.18-0.23 0.21-0.37 0.94 0.57 1.91 1.15 2.91 1.75l-4.43 4.29c-0.35 0.34-0.35 0.9-0.02 1.26 0.18 0.18 0.41 0.27 0.64 0.27 0.21 0 0.44-0.09 0.6-0.25l4.59-4.43c0.07-0.07 0.12-0.14 0.14-0.23 6.29 3.76 12.9 7.62 14.62 8.29-4.93-0.43-50.96 0.09-50.96 0.09l3.96-13.01c0.17-0.55 0.78-0.83 1.32-0.62 11.38 4.41 16.38 0 17.85-1.78 0.31-0.38 0.85-0.46 1.27-0.21 0.48 0.29 1.17 0.71 2.02 1.23l-4.38 4.23c-0.35 0.34-0.35 0.89-0.02 1.24 0.18 0.18 0.41 0.28 0.64 0.28 0.21 0 0.44-0.09 0.62-0.27l4.57-4.43s0.07-0.07 0.09-0.12c0.76 0.46 1.61 0.97 2.52 1.52l-4.57 4.43c-0.35 0.34-0.37 0.89-0.02 1.24 0.16 0.18 0.39 0.28 0.64 0.28 0.21 0 0.44-0.09 0.6-0.27l4.59-4.43z" fill="url(#h)"/>
   <path class="af" d="m218.12 299.73c-0.16 0.16-0.39 0.25-0.6 0.25-0.23 0-0.46-0.09-0.64-0.27-0.34-0.35-0.34-0.92 0.02-1.26l4.43-4.29c0.51 0.3 1.01 0.6 1.52 0.9-0.02 0.09-0.07 0.16-0.14 0.23l-4.59 4.43z"/>
   <path class="af" d="m216.97 291.53c0.46 0.28 0.96 0.58 1.45 0.89-0.04 0.14-0.11 0.27-0.21 0.37l-4.59 4.43c-0.16 0.18-0.39 0.27-0.6 0.27-0.25 0-0.48-0.11-0.64-0.28-0.35-0.35-0.34-0.9 0.02-1.24l4.57-4.43z"/>
   <path class="af" d="m209.8 294.56c-0.18 0.18-0.41 0.27-0.62 0.27-0.23 0-0.46-0.11-0.64-0.28-0.34-0.35-0.34-0.9 0.02-1.24l4.38-4.23c0.46 0.28 0.97 0.6 1.52 0.94-0.02 0.05-0.05 0.09-0.09 0.12l-4.57 4.43z"/>
   <path class="ag" d="m237.12 143.3h-28.76s-43.38-7-51.83-12.19c-3.14-1.93-8.52-7.84-14.08-14.51l19.6-16.32c3.43 5.44 6.55 9.87 7.8 10.35 3.41 1.29 35.74 19.32 39.48 19.32s21.6-0.31 27.79 13.34z"/>
   <path class="v" d="m163.38 99.88-20.92 16.73c-9.48-11.37-19.4-24.98-19.4-24.98l29.67-17.9s7.62 18.1 10.65 26.15z" fill="url(#s)"/>
   <path class="r" d="m145.48 58.8-21.45-8.44s-25.58 2.97-27.34 64.6c-0.34 11.9-0.22 77.65 3.4 79.34 14.45 6.73 51.67-37.37 51.67-37.37 0.74-1.37-0.31-15.59 0-16.99-0.9-0.33-1.64-0.68-2.22-1.01-3.8-2.24-10.9-11.66-17.88-21.84l22.07-17.2c0.88 1.38 1.75 2.73 2.59 4.04 0.58-32.87-10.84-45.12-10.84-45.12z" fill="url(#j)"/>
   <path class="at" d="m151.76 139.93c-0.9-0.33-1.64-0.68-2.22-1.01-3.8-2.24-10.9-11.66-17.88-21.84l10.83-8.44-10.83-16.06-19.52-12.76v8.79s8.36 22.74 18.31 40.57c5.4 9.68 14.34 14.43 21.39 16.76-0.11-2.94-0.19-5.46-0.07-6.01z"/>
   <path class="y" d="m214.7 136.48s-45.33-18.52-48.42-19.19c-0.97-0.21-4.31-4.81-8.41-11.02-0.86-1.34-3.27-5.01-4.14-6.38l-22.07 17.2c6.98 10.18 14.08 19.6 17.88 21.84 0.58 0.33 1.33 0.68 2.22 1.01 0-0.05 0.02-0.09 0.03-0.13 0 0.04-0.02 0.08-0.03 0.13 13.18 4.93 60.61 7.21 61.53 7.52 1.7 1.32 5.71 1.4 9.31 0.41 1.67-0.46 3.26-1.14 4.47-2.06 3.17-2.37 7.9 0.98 10.04 2.59 1.39 1.05 4.62 1.01 5.69-0.06-2.44-13.65-28.12-11.85-28.12-11.85z" fill="url(#k)"/>
   <polygon class="aa" points="145.48 58.79 124.03 50.35 133.01 36.1 147.23 46.57 150.37 48.88 149.73 50.18 148.35 52.97 148.1 53.48" fill="url(#l)"/>
   <path class="t" d="m112.13 88.6 22.36 34.36 25.56-14.68s-6.96-26.77-13.72-41.5c-4.2-9.15-16.28-13.69-27.97-6.41-10.3 6.41-9.99 21.39-6.24 28.24z" fill="url(#m)"/>
   <path class="as" d="m154.3 26.78c-0.82-3.73-4.23-7.16-7.31-2.17-0.76 1.24-1.02 2.71-1.17 4.16-0.55 5.2-6.59 7.48-11.11 7.83-0.71 0.05-1.47 0.05-2.18-0.08 0 0 1.14-8.55 3.68-18.86s8.28-20.81 16.58-16.6c0 0 7.64-3.56 12.28 2.35 0 0 7.88-2.83 11.97 3.51 0 0 11.07 2.09 13.14 8.97 2.63 8.74-9.61 10.87-13.69 8.39-4.08-2.47-7.17-7.17-9.99-7.08s-2.18 4.41-2.6 7.08-4.57-0.08-6.33 3.51-2.64 5.6-3.69 4.97c-1.06-0.63 0.42-5.98 0.42-5.98z"/>
   <path class="ag" d="m152.82 27.69c0.31-1.34-0.52-3.25-1.69-3.33-1.5-0.1-2.19 1.73-2.3 3.34-0.1 1.48 0.34 4.04 1.98 3.48 1.25-0.43-0.14-1.93 0.31-2.75 0.49-0.9 1.71 0.7 1.71-0.74z"/>
   <path class="ag" d="m149.73 50.18-1.38 2.79c-4.51-3.22-4.33-8.1-4.33-8.1s1.3 2.78 5.71 5.31z"/>
   <path class="ao" d="m68.68 99.94c0 0.17 0 0.24 0.01 0.3 0.02 0.2 0.03 0.26 0.04 0.37 0.05 0.39 0.15 1.07 0.31 2.12 1.16 7.78 5.33 34.44 9.21 59.18s7.46 47.54 7.46 47.54l7.7-1.21s-0.27-1.69-0.73-4.64c-1.62-10.34-5.69-36.19-9.34-59.56-1.83-11.69-3.55-22.75-4.82-30.95-0.63-4.1-1.15-7.48-1.52-9.86-0.18-1.19-0.32-2.13-0.41-2.77-0.05-0.32-0.08-0.57-0.1-0.73l-0.02-0.15s-2.31 0.25-2.31 0.25l2.31-0.19v-0.06s-2.31 0.25-2.31 0.25l2.31-0.19-3.61 0.3h3.62c0-0.21 0-0.26-0.01-0.3l-3.61 0.3z"/>
   <path class="aq" transform="rotate(180 142.31 266.12)" d="m139.21 219.98h6.19c0.9 0 1.63 0.73 1.63 1.63v90.66h-9.44v-90.66c0-0.9 0.73-1.63 1.63-1.63z"/>
   <path class="aq" transform="rotate(180 142.31 300.94)" d="m139.21 289.6h6.19c0.9 0 1.63 0.73 1.63 1.63v21.04h-9.44v-21.04c0-0.9 0.73-1.63 1.63-1.63z"/>
   <path class="ao" transform="rotate(180,142.31,225.22)" d="m122.68 221.28h39.26c3.5 0 6.34 2.84 6.34 6.34v1.54h-51.94v-1.54c0-3.5 2.84-6.34 6.34-6.34z"/>
   <rect class="z" transform="rotate(180,142.31,212.32)" x="84.76" y="203.12" width="115.09" height="18.4" rx="7.4" ry="7.4" fill="url(#r)"/>
   <path class="aq" d="m93.3 306.74c0 3.05 2.47 5.53 5.53 5.53s5.53-2.47 5.53-5.53-2.47-5.53-5.53-5.53-5.53 2.47-5.53 5.53z"/>
   <circle class="aq" cx="185.79" cy="306.74" r="5.53"/>
   <rect class="ao" transform="rotate(180,142.31,290.87)" x="132.81" y="282.57" width="19" height="16.6"/>
   <path class="w" transform="rotate(180,142.31,299.17)" d="m93.3 295.26h98.03v2.06c0 3.17-2.58 5.75-5.75 5.75h-86.53c-3.17 0-5.75-2.58-5.75-5.75z" fill="url(#o)"/>
   <path class="x" d="m66.35 106.37 4.16 30.85c0.59 4.4 4.64 7.48 9.04 6.89s7.48-4.64 6.89-9.04l-4.16-30.85c-0.59-4.4-4.64-7.48-9.04-6.89s-7.48 4.64-6.89 9.04" fill="url(#p)"/>
   <rect class="an" x="340.58" y="160.02" width="8.45" height="151.19"/>
   <rect class="an" x="213.29" y="160.02" width="8.45" height="151.19"/>
   <rect class="af" x="206.96" y="150.6" width="150.54" height="10.56"/>
  </g>
  <g class="aw" transform="matrix(.34213 0 0 .34213 259.82 8.4215)" style="isolation:isolate">
   <path class="ak" d="m371.09 223.35-12.93 90.79h-328.78l-9.71-69.26c-1.08-7.76 3.21-15.28 10.45-18.29l29.18-12.11v-29.02c0-8.55 6.26-15.8 14.72-17.03l6.9-1.01 11.59-39.19c2.16-7.32 8.88-12.33 16.5-12.33h118.55c4.51 0 8.64 1.74 11.72 4.6 3.08 2.87 5.11 6.86 5.44 11.36l56.45 5.96c8.38 0.89 14.88 7.7 15.38 16.11l2.28 39.16 39.89 11.27c8.3 2.34 13.58 10.46 12.37 18.99z"/>
   <path class="al" d="m353.49 276.02-5.43 38.12h-233.24l-3.26-23.29c-0.75-5.35 2.2-10.52 7.19-12.59l20.09-8.34v-19.98c0-5.88 4.31-10.88 10.13-11.73l4.76-0.69 7.97-26.98c1.49-5.04 6.11-8.49 11.36-8.49h81.61c3.11 0 5.95 1.2 8.07 3.17 2.13 1.97 3.53 4.72 3.75 7.82l38.86 4.1c5.77 0.61 10.25 5.31 10.59 11.1l1.57 26.95 27.47 7.76c5.71 1.61 9.34 7.2 8.51 13.07z"/>
   <rect class="ak" x=".83" y="311.22" width="421.7" height="5.85"/>
   <path class="ao" d="m61.8 263.42s-0.68 2.03-1.4 4.57-1.48 5.58-1.64 7.7l1.21 0.09c0.14-1.93 0.89-4.96 1.6-7.46 0.36-1.25 0.7-2.38 0.96-3.2 0.26-0.81 0.42-1.31 0.43-1.31l-1.15-0.39z"/>
   <path class="ao" d="m50.92 264.42s0.02 0.21 0.06 0.58c0.11 1.12 0.33 3.73 0.33 6.56 0 1.33-0.05 2.7-0.18 3.99l1.21 0.12c0.13-1.35 0.18-2.76 0.18-4.11 0-3.86-0.4-7.27-0.4-7.28l-1.21 0.14z"/>
   <path class="ao" d="m44.89 272.47c0.04 0.05 0.29 0.35 0.52 0.76 0.23 0.42 0.43 0.95 0.43 1.47h1.22c0-0.87-0.33-1.62-0.64-2.16s-0.62-0.87-0.64-0.89l-0.9 0.82z"/>
   <path class="ae" d="m60.35 264.66s-6.24-7.91 3.35-24.35 29.37-20.39 30.28-18.26-10.04 6.24-13.09 18.87c-3.04 12.63-3.45 19.63-7.25 23.44s-8.98 5.33-13.29 0.3z" fill="url(#u)"/>
   <path class="ac" d="m47.51 266.25s-0.68-8.9-16.79-13.85-31.37 4.34-30.69 6.28 10.29-1.96 19.85 4.44 14.03 10.72 18.79 10.91c4.76 0.2 9.05-1.92 8.84-7.78z" fill="url(#d)"/>
   <path class="ad" d="m57.2 260.42s10.75-11.54-1.72-30c-12.46-18.46-39.94-19.75-40.85-17.19-0.9 2.56 10.75 7.39 15.28 21.91s7 21.8 11.73 25.95 10.9 5.53 15.55-0.66z" fill="url(#e)"/>
   <path class="ai" d="m62.89 262.22c-0.05 0-0.11 0-0.16-0.02-0.32-0.09-0.51-0.42-0.42-0.75 0.28-1 6.96-24.72 19.32-33.78 0.27-0.2 0.65-0.14 0.85 0.13s0.14 0.65-0.13 0.85c-12.02 8.81-18.8 32.88-18.87 33.12-0.07 0.27-0.32 0.45-0.59 0.45z"/>
   <path class="ai" d="m50.44 259.21c-0.27 0-0.52-0.19-0.61-0.45-0.03-0.1-0.04-0.17-0.07-0.66-0.56-8.34-4.11-36.02-26.44-41.86-0.33-0.09-0.52-0.42-0.44-0.74s0.42-0.52 0.74-0.44c23.12 6.05 26.78 34.41 27.35 42.96 0.02 0.23 0.02 0.38 0.03 0.44 0.11 0.32-0.08 0.62-0.4 0.73-0.06 0.02-0.11 0.03-0.17 0.03z"/>
   <g class="av">
    <path class="ah" d="m42.92 270.29c-0.28 0-0.55-0.25-1.44-1.05-10.01-9.06-19.66-13.35-28.69-12.77-0.34 0.02-0.62-0.23-0.65-0.57-0.02-0.34 0.23-0.62 0.57-0.65 9.37-0.62 19.32 3.79 29.59 13.08 0.36 0.32 0.72 0.65 0.87 0.76 0.17 0.06 0.3 0.2 0.36 0.38 0.11 0.32-0.07 0.66-0.38 0.77-0.08 0.03-0.15 0.04-0.22 0.04z"/>
   </g>
   <path class="am" d="m67.83 311.53h-31.39c-0.79 0-1.48-0.54-1.65-1.31l-8.22-35.51h51.13l-8.22 35.51c-0.18 0.77-0.86 1.31-1.65 1.31z"/>
   <polygon class="au" points="26.57 274.7 28.96 285.03 75.31 285.03 77.7 274.7"/>
   <polygon class="am" points="26.57 274.7 27.05 276.79 77.22 276.79 77.7 274.7"/>
   <polygon class="ar" points="319.24 90.44 286.19 150.84 217.52 150.84 217.52 146.94 283.87 146.94 315.82 88.57"/>
   <path class="ab" d="m176.25 26.88s-0.91 6.06-4.57 11.71-11.91 13.95-14.19 14.66c-0.92 0.28-4.19-1.2-7.76-3.07-1.17-0.61-2.37-1.27-3.54-1.91-4.11-2.28-7.73-4.48-7.73-4.48l-5.45-7.69c2.21-11.15 6.15-19.51 12.21-27.42 6.05-7.92 19.57-3.16 24.49 0.64 4.93 3.8 7.61 9.76 6.54 17.56z" fill="url(#q)"/>
   <path class="ag" d="m145.94 27.81c-0.16 4.98 3.12 6.86 3.78 7.7s-3.75 5.44-5.73 3.38c-1.97-2.06 1.94-11.08 1.94-11.08z"/>
   <polygon class="aj" points="251.94 279.54 269.29 278.47 271.73 290.18 255.65 292.95"/>
   <path class="af" d="m302.57 295.6 1.05 5.86-51.02 9.1-1.04-5.81s45.23-8.59 50.15-9.04l0.86-0.12z"/>
   <path class="s" d="m280.89 288.69c0.09-0.12 0.13-0.26 0.14-0.4 1.02 0.39 2.09 0.8 3.17 1.22l-3.61 5c-0.29 0.39-0.19 0.95 0.2 1.24 0.21 0.14 0.45 0.19 0.67 0.15 0.21-0.04 0.42-0.16 0.55-0.35l3.74-5.17c0.06-0.08 0.1-0.16 0.1-0.25 6.85 2.59 14.04 5.24 15.85 5.6-4.92 0.45-50.15 9.04-50.15 9.04l1.61-13.5c0.07-0.57 0.62-0.95 1.19-0.84 11.97 2.34 16.13-2.87 17.26-4.89 0.24-0.43 0.75-0.6 1.21-0.43 0.53 0.2 1.28 0.5 2.2 0.85l-3.56 4.94c-0.29 0.39-0.19 0.93 0.2 1.22 0.21 0.14 0.45 0.21 0.68 0.17 0.21-0.04 0.42-0.17 0.56-0.37l3.72-5.16s0.06-0.08 0.07-0.14c0.83 0.32 1.76 0.68 2.74 1.06l-3.72 5.16c-0.29 0.39-0.21 0.94 0.2 1.22 0.19 0.15 0.43 0.21 0.68 0.17 0.21-0.04 0.42-0.17 0.55-0.37l3.74-5.17z" fill="url(#t)"/>
   <path class="af" d="m282.02 295.54c-0.13 0.18-0.34 0.31-0.55 0.35-0.23 0.04-0.47 0-0.67-0.15-0.39-0.29-0.49-0.85-0.2-1.24l3.61-5c0.56 0.21 1.1 0.42 1.66 0.62 0 0.09-0.04 0.17-0.1 0.25l-3.74 5.17z"/>
   <path class="af" d="m279.45 287.67c0.5 0.2 1.04 0.41 1.59 0.62 0 0.15-0.06 0.28-0.14 0.4l-3.74 5.17c-0.13 0.2-0.34 0.33-0.55 0.37-0.24 0.04-0.49-0.02-0.68-0.17-0.41-0.29-0.49-0.83-0.2-1.22l3.72-5.16z"/>
   <path class="af" d="m272.92 291.91c-0.14 0.21-0.35 0.33-0.56 0.37-0.23 0.04-0.47-0.02-0.68-0.17-0.39-0.29-0.49-0.83-0.2-1.22l3.56-4.94c0.5 0.2 1.07 0.42 1.67 0.66 0 0.06-0.04 0.1-0.07 0.14z"/>
   <path class="ap" d="m181.94 203.07c-10.45 0.53-24.41 1.27-42.64 1.97-51.01 1.95-40.62-47.44-40.62-47.44l48.75-0.64s72.48-1.07 87.74 8.68c15.27 9.75 37.53 112.62 37.53 112.62l-24.28 6.78s-19.67-42.29-31.16-64.81c-4.72-9.26-8.13-16.07-8.42-16.81-0.62-1.66-8.09-1.33-26.91-0.35z"/>
   <path class="aq" d="m148.98 156.94c-1 0-1.55 0.02-1.55 0.02l-48.75 0.64s-5.83 27.7 12.67 40.79c18.41-4.45 29.39-23.14 39.05-39.91l-1.43-1.55z"/>
   <path class="aq" d="m217.27 220.22-4.04 61.03-4.39 0.1v-2.53h-17.39v2.96l-4.8 0.12-4.72-78.83c18.82-0.97 26.28-1.31 26.91 0.35 0.29 0.74 3.7 7.55 8.42 16.81z"/>
   <polygon class="aj" points="191.46 281.78 208.85 281.35 208.85 292.47 191.46 292.47"/>
   <polygon class="aq" points="191.46 278.82 208.85 278.82 208.85 281.35 191.46 281.78"/>
   <path class="af" d="m238.34 303.39v5.96h-51.83v-5.9s46.03-0.51 50.96-0.09z"/>
   <path class="u" d="m218.21 292.78c0.11-0.11 0.18-0.23 0.21-0.37 0.94 0.57 1.91 1.15 2.91 1.75l-4.43 4.29c-0.35 0.34-0.35 0.9-0.02 1.26 0.18 0.18 0.41 0.27 0.64 0.27 0.21 0 0.44-0.09 0.6-0.25l4.59-4.43c0.07-0.07 0.12-0.14 0.14-0.23 6.29 3.76 12.9 7.62 14.62 8.29-4.93-0.43-50.96 0.09-50.96 0.09l3.96-13.01c0.17-0.55 0.78-0.83 1.32-0.62 11.38 4.41 16.38 0 17.85-1.78 0.31-0.38 0.85-0.46 1.27-0.21 0.48 0.29 1.17 0.71 2.02 1.23l-4.38 4.23c-0.35 0.34-0.35 0.89-0.02 1.24 0.18 0.18 0.41 0.28 0.64 0.28 0.21 0 0.44-0.09 0.62-0.27l4.57-4.43s0.07-0.07 0.09-0.12c0.76 0.46 1.61 0.97 2.52 1.52l-4.57 4.43c-0.35 0.34-0.37 0.89-0.02 1.24 0.16 0.18 0.39 0.28 0.64 0.28 0.21 0 0.44-0.09 0.6-0.27l4.59-4.43z" fill="url(#h)"/>
   <path class="af" d="m218.12 299.73c-0.16 0.16-0.39 0.25-0.6 0.25-0.23 0-0.46-0.09-0.64-0.27-0.34-0.35-0.34-0.92 0.02-1.26l4.43-4.29c0.51 0.3 1.01 0.6 1.52 0.9-0.02 0.09-0.07 0.16-0.14 0.23l-4.59 4.43z"/>
   <path class="af" d="m216.97 291.53c0.46 0.28 0.96 0.58 1.45 0.89-0.04 0.14-0.11 0.27-0.21 0.37l-4.59 4.43c-0.16 0.18-0.39 0.27-0.6 0.27-0.25 0-0.48-0.11-0.64-0.28-0.35-0.35-0.34-0.9 0.02-1.24l4.57-4.43z"/>
   <path class="af" d="m209.8 294.56c-0.18 0.18-0.41 0.27-0.62 0.27-0.23 0-0.46-0.11-0.64-0.28-0.34-0.35-0.34-0.9 0.02-1.24l4.38-4.23c0.46 0.28 0.97 0.6 1.52 0.94-0.02 0.05-0.05 0.09-0.09 0.12l-4.57 4.43z"/>
   <path class="ag" d="m237.12 143.3h-28.76s-43.38-7-51.83-12.19c-3.14-1.93-8.52-7.84-14.08-14.51l19.6-16.32c3.43 5.44 6.55 9.87 7.8 10.35 3.41 1.29 35.74 19.32 39.48 19.32s21.6-0.31 27.79 13.34z"/>
   <path class="v" d="m163.38 99.88-20.92 16.73c-9.48-11.37-19.4-24.98-19.4-24.98l29.67-17.9s7.62 18.1 10.65 26.15z" fill="url(#s)"/>
   <path class="r" d="m145.48 58.8-21.45-8.44s-25.58 2.97-27.34 64.6c-0.34 11.9-0.22 77.65 3.4 79.34 14.45 6.73 51.67-37.37 51.67-37.37 0.74-1.37-0.31-15.59 0-16.99-0.9-0.33-1.64-0.68-2.22-1.01-3.8-2.24-10.9-11.66-17.88-21.84l22.07-17.2c0.88 1.38 1.75 2.73 2.59 4.04 0.58-32.87-10.84-45.12-10.84-45.12z" fill="url(#j)"/>
   <path class="at" d="m151.76 139.93c-0.9-0.33-1.64-0.68-2.22-1.01-3.8-2.24-10.9-11.66-17.88-21.84l10.83-8.44-10.83-16.06-19.52-12.76v8.79s8.36 22.74 18.31 40.57c5.4 9.68 14.34 14.43 21.39 16.76-0.11-2.94-0.19-5.46-0.07-6.01z"/>
   <path class="y" d="m214.7 136.48s-45.33-18.52-48.42-19.19c-0.97-0.21-4.31-4.81-8.41-11.02-0.86-1.34-3.27-5.01-4.14-6.38l-22.07 17.2c6.98 10.18 14.08 19.6 17.88 21.84 0.58 0.33 1.33 0.68 2.22 1.01 0-0.05 0.02-0.09 0.03-0.13 0 0.04-0.02 0.08-0.03 0.13 13.18 4.93 60.61 7.21 61.53 7.52 1.7 1.32 5.71 1.4 9.31 0.41 1.67-0.46 3.26-1.14 4.47-2.06 3.17-2.37 7.9 0.98 10.04 2.59 1.39 1.05 4.62 1.01 5.69-0.06-2.44-13.65-28.12-11.85-28.12-11.85z" fill="url(#k)"/>
   <polygon class="aa" points="148.1 53.48 145.48 58.79 124.03 50.35 133.01 36.1 147.23 46.57 150.37 48.88 149.73 50.18 148.35 52.97" fill="url(#l)"/>
   <path class="t" d="m112.13 88.6 22.36 34.36 25.56-14.68s-6.96-26.77-13.72-41.5c-4.2-9.15-16.28-13.69-27.97-6.41-10.3 6.41-9.99 21.39-6.24 28.24z" fill="url(#m)"/>
   <path class="as" d="m154.3 26.78c-0.82-3.73-4.23-7.16-7.31-2.17-0.76 1.24-1.02 2.71-1.17 4.16-0.55 5.2-6.59 7.48-11.11 7.83-0.71 0.05-1.47 0.05-2.18-0.08 0 0 1.14-8.55 3.68-18.86s8.28-20.81 16.58-16.6c0 0 7.64-3.56 12.28 2.35 0 0 7.88-2.83 11.97 3.51 0 0 11.07 2.09 13.14 8.97 2.63 8.74-9.61 10.87-13.69 8.39-4.08-2.47-7.17-7.17-9.99-7.08s-2.18 4.41-2.6 7.08-4.57-0.08-6.33 3.51-2.64 5.6-3.69 4.97c-1.06-0.63 0.42-5.98 0.42-5.98z"/>
   <path class="ag" d="m152.82 27.69c0.31-1.34-0.52-3.25-1.69-3.33-1.5-0.1-2.19 1.73-2.3 3.34-0.1 1.48 0.34 4.04 1.98 3.48 1.25-0.43-0.14-1.93 0.31-2.75 0.49-0.9 1.71 0.7 1.71-0.74z"/>
   <path class="ag" d="m149.73 50.18-1.38 2.79c-4.51-3.22-4.33-8.1-4.33-8.1s1.3 2.78 5.71 5.31z"/>
   <path class="ao" d="m68.68 99.94c0 0.17 0 0.24 0.01 0.3 0.02 0.2 0.03 0.26 0.04 0.37 0.05 0.39 0.15 1.07 0.31 2.12 1.16 7.78 5.33 34.44 9.21 59.18s7.46 47.54 7.46 47.54l7.7-1.21s-0.27-1.69-0.73-4.64c-1.62-10.34-5.69-36.19-9.34-59.56-1.83-11.69-3.55-22.75-4.82-30.95-0.63-4.1-1.15-7.48-1.52-9.86-0.18-1.19-0.32-2.13-0.41-2.77-0.05-0.32-0.08-0.57-0.1-0.73l-0.02-0.15s-2.31 0.25-2.31 0.25l2.31-0.19v-0.06s-2.31 0.25-2.31 0.25l2.31-0.19-3.61 0.3h3.62c0-0.21 0-0.26-0.01-0.3l-3.61 0.3z"/>
   <path class="aq" transform="rotate(180 142.31 266.12)" d="m139.21 219.98h6.19c0.9 0 1.63 0.73 1.63 1.63v90.66h-9.44v-90.66c0-0.9 0.73-1.63 1.63-1.63z"/>
   <path class="aq" transform="rotate(180 142.31 300.94)" d="m139.21 289.6h6.19c0.9 0 1.63 0.73 1.63 1.63v21.04h-9.44v-21.04c0-0.9 0.73-1.63 1.63-1.63z"/>
   <path class="ao" transform="rotate(180,142.31,225.22)" d="m122.68 221.28h39.26c3.5 0 6.34 2.84 6.34 6.34v1.54h-51.94v-1.54c0-3.5 2.84-6.34 6.34-6.34z"/>
   <rect class="z" transform="rotate(180,142.31,212.32)" x="84.76" y="203.12" width="115.09" height="18.4" rx="7.4" ry="7.4" fill="url(#r)"/>
   <path class="aq" d="m93.3 306.74c0 3.05 2.47 5.53 5.53 5.53s5.53-2.47 5.53-5.53-2.47-5.53-5.53-5.53-5.53 2.47-5.53 5.53z"/>
   <circle class="aq" cx="185.79" cy="306.74" r="5.53"/>
   <rect class="ao" transform="rotate(180,142.31,290.87)" x="132.81" y="282.57" width="19" height="16.6"/>
   <path class="w" transform="rotate(180,142.31,299.17)" d="m93.3 295.26h98.03v2.06c0 3.17-2.58 5.75-5.75 5.75h-86.53c-3.17 0-5.75-2.58-5.75-5.75z" fill="url(#o)"/>
   <path class="x" d="m66.35 106.37 4.16 30.85c0.59 4.4 4.64 7.48 9.04 6.89s7.48-4.64 6.89-9.04l-4.16-30.85c-0.59-4.4-4.64-7.48-9.04-6.89s-7.48 4.64-6.89 9.04" fill="url(#p)"/>
   <rect class="an" x="340.58" y="160.02" width="8.45" height="151.19"/>
   <rect class="an" x="213.29" y="160.02" width="8.45" height="151.19"/>
   <rect class="af" x="206.96" y="150.6" width="150.54" height="10.56"/>
  </g>
 </g>
</svg>
