<svg xmlns="http://www.w3.org/2000/svg" viewBox="0 0 512 512">
  <defs>
    <clipPath id="a">
      <path d="M0 0h512v512H0z"/>
    </clipPath>
  </defs>
  <g clip-path="url(#a)">
    <path fill-opacity="0" fill="#fff" d="M0 0h512v512H0z"/>
    <g >
      <circle cx="127" cy="127" r="127" fill="#463929" transform="translate(129 24)"/>
      <g fill="#7e7e7e" >
        <circle cx="60" cy="60" r="60" transform="translate(80 341)"/>
        <path d="M80 401h68v111H80z"/>
      </g>
      <g fill="#7e7e7e" >
        <circle cx="60" cy="60" r="60" transform="translate(313 341)"/>
        <path d="M363 401h70v111h-70z"/>
      </g>
      <path fill="#141413" d="M140 341h233v171H140z"/>
      <g >
        <rect width="54" height="147" fill="#f4ab90" rx="27" transform="translate(229 245)"/>
        <rect width="33" height="76" fill="#f4ab90" rx="16.5" transform="translate(140 164)"/>
        <rect width="33" height="76" fill="#f4ab90" rx="16.5" transform="translate(340 166)"/>
        <rect width="200" height="258" fill="#ffc8b4" rx="100" transform="translate(156 61)"/>
        <rect width="33" height="91" fill="#f4ab90" rx="16.5" transform="translate(240 151)"/>
        <path fill="#fff" d="M256 258.867c17.25 0 35-2.48 35 6.633s-15.946 22.964-35 22.964-34-13.851-34-22.964 16.75-6.633 34-6.633Z"/>
      </g>
      <g >
        <circle cx="18.861" cy="18.861" r="18.861" fill="#b2745d" transform="translate(185 151)"/>
        <path fill="#553326" d="M203.861 157.035c3.372 0 1.6 5.93 4.232 8.385 2.18 2.014 8.593.728 8.593 4.44a12.825 12.825 0 1 1-12.825-12.825Z"/>
      </g>
      <g >
        <path fill="#b2745d" d="M308.651 151a18.861 18.861 0 1 1-18.861 18.861A18.861 18.861 0 0 1 308.651 151Z"/>
        <path fill="#553326" d="M308.651 157.035c3.372 0 1.6 5.93 4.232 8.385 2.18 2.014 8.593.728 8.593 4.44a12.825 12.825 0 1 1-12.825-12.825Z"/>
      </g>
      <path fill="#463929" d="M268.433.382c69.86 6.102 76.433 45.648 111.743 36.782 17.373-4.363 6.242 38.597-28.335 62.601-16.075 11.16-35.312 21.81-83.39 31.32-57.782 11.428-140.897 22.954-137.559-15.26A126.974 126.974 0 0 1 268.433.382Z"/>
    </g>
  </g>
</svg>
